name C:\Users\u0101727\Documents\MyRepositories\upper-imu-dc\Results\main_tracking\Case_22\kinematics.mot
datacolumns 10
datarows 56
range 0.70000000 1.25000000
endheader 
time	clav_prot	clav_elev	scapula_abduction	scapula_elevation	scapula_upward_rot	scapula_winging	plane_elv	shoulder_elv	axial_rot	
          0.70000000	        -17.78948368	         -3.36719531	         -3.28180898	         -3.56015395	         14.78282621	          4.12821968	        -18.47776523	         15.27161046	         35.47136308	
          0.71000000	        -17.77860437	         -3.40697860	         -3.29528522	         -3.54379399	         14.77234533	          4.12552629	        -18.42919569	         15.24683275	         35.75861305	
          0.72000000	        -17.78021112	         -3.37773913	         -3.30174929	         -3.52312498	         14.77819098	          4.11602210	        -18.37834583	         15.23298792	         36.04913658	
          0.73000000	        -17.78408033	         -3.34980022	         -3.30883748	         -3.50487838	         14.78914153	          4.10601047	        -18.32752629	         15.22761517	         36.34048911	
          0.74000000	        -17.78807314	         -3.32466170	         -3.31486271	         -3.48903178	         14.80110376	          4.09656842	        -18.27787752	         15.22357932	         36.62491761	
          0.75000000	        -17.79119334	         -3.30287591	         -3.31923305	         -3.47539407	         14.81190347	          4.08822268	        -18.23001447	         15.21665778	         36.88838746	
          0.76000000	        -17.79319191	         -3.28504473	         -3.32200667	         -3.46413132	         14.82045898	          4.08137090	        -18.18500132	         15.20526259	         37.11485337	
          0.77000000	        -17.79452482	         -3.27197356	         -3.32395143	         -3.45580773	         14.82649371	          4.07639026	        -18.14440840	         15.18941552	         37.29155968	
          0.78000000	        -17.79610954	         -3.26445855	         -3.32624314	         -3.45117925	         14.83041151	          4.07356466	        -18.11047346	         15.16970229	         37.41412442	
          0.79000000	        -17.79900422	         -3.26296044	         -3.33013473	         -3.45086306	         14.83303993	          4.07300160	        -18.08559585	         15.14666193	         37.48815168	
          0.80000000	        -17.80405941	         -3.26733637	         -3.33662037	         -3.45502507	         14.83527765	          4.07458514	        -18.07157256	         15.12071557	         37.52651872	
          0.81000000	        -17.81161081	         -3.27672260	         -3.34620200	         -3.46315507	         14.83762874	          4.07800687	        -18.06856008	         15.09256025	         37.54363140	
          0.82000000	        -17.82141790	         -3.28957677	         -3.35889618	         -3.47404139	         14.83999224	          4.08281917	        -18.07468848	         15.06353068	         37.54988991	
          0.83000000	        -17.83266211	         -3.30373924	         -3.37429362	         -3.48578368	         14.84153116	          4.08848325	        -18.08577581	         15.03580210	         37.54851139	
          0.84000000	        -17.84441481	         -3.31669267	         -3.39206218	         -3.49612444	         14.84110110	          4.09441528	        -18.09637580	         15.01205848	         37.53633596	
          0.85000000	        -17.85586514	         -3.32572989	         -3.41218044	         -3.50264249	         14.83746102	          4.10002079	        -18.10032660	         14.99516336	         37.50663453	
          0.86000000	        -17.86677496	         -3.32816434	         -3.43535348	         -3.50307976	         14.82983135	          4.10469587	        -18.09210956	         14.98755281	         37.45291535	
          0.87000000	        -17.87741544	         -3.32131307	         -3.46291003	         -3.49532381	         14.81788944	          4.10781688	        -18.06668285	         14.99104566	         37.37068564	
          0.88000000	        -17.88868932	         -3.30262128	         -3.49687560	         -3.47755839	         14.80196135	          4.10875541	        -18.01983226	         15.00666291	         37.25802452	
          0.89000000	        -17.90161439	         -3.26935328	         -3.53939147	         -3.44789589	         14.78260911	          4.10681185	        -17.94667329	         15.03479973	         37.11364564	
          0.90000000	        -17.91698570	         -3.21828713	         -3.59228455	         -3.40409295	         14.76049376	          4.10111609	        -17.84073555	         15.07520148	         36.93482207	
          0.91000000	        -17.93496013	         -3.14544130	         -3.65651864	         -3.34327684	         14.73620094	          4.09054215	        -17.69319837	         15.12695977	         36.71593253	
          0.92000000	        -17.95472257	         -3.04583948	         -3.73163339	         -3.26177084	         14.71032073	          4.07359845	        -17.49309574	         15.18825039	         36.44914220	
          0.93000000	        -17.97440497	         -2.91355833	         -3.81541468	         -3.15521379	         14.68377933	          4.04839738	        -17.22870090	         15.25595288	         36.12721057	
          0.94000000	        -17.99123407	         -2.74222194	         -3.90385402	         -3.01903591	         14.65818352	          4.01280062	        -16.88963778	         15.32550678	         35.74700742	
          0.95000000	        -18.00169383	         -2.52579134	         -3.99122829	         -2.84908758	         14.63587969	          3.96471979	        -16.46877462	         15.39125389	         35.31176839	
          0.96000000	        -18.00205053	         -2.25967690	         -4.07072434	         -2.64253165	         14.62000854	          3.90253411	        -15.96420418	         15.44705435	         34.83172054	
          0.97000000	        -17.98874294	         -1.94177095	         -4.13498869	         -2.39859110	         14.61426796	          3.82546375	        -15.38041757	         15.48719219	         34.32270445	
          0.98000000	        -17.95895829	         -1.57321040	         -4.17697383	         -2.11912215	         14.62277118	          3.73377484	        -14.72889063	         15.50704603	         33.80381033	
          0.99000000	        -17.91115930	         -1.15862699	         -4.19081427	         -1.80877942	         14.64986265	          3.62875142	        -14.02742733	         15.50345394	         33.29440091	
          1.00000000	        -17.84551889	         -0.70580278	         -4.17269239	         -1.47471092	         14.69990120	          3.51245315	        -13.29806225	         15.47470524	         32.81109649	
          1.01000000	        -17.76420996	         -0.22482049	         -4.12160477	         -1.12585333	         14.77702457	          3.38735165	        -12.56381189	         15.42024434	         32.36526563	
          1.02000000	        -17.67140040	          0.27309796	         -4.03975677	         -0.77196503	         14.88488025	          3.25595671	        -11.84505716	         15.34028347	         31.96164967	
          1.03000000	        -17.57290702	          0.77681228	         -3.93239340	         -0.42261625	         15.02642562	          3.12050599	        -11.15676951	         15.23541533	         31.59893728	
          1.04000000	        -17.47550459	          1.27633615	         -3.80696581	         -0.08631061	         15.20385033	          2.98274593	        -10.50744212	         15.10628212	         31.27250063	
          1.05000000	        -17.38604846	          1.76362208	         -3.67185137	          0.23014635	         15.41862144	          2.84381158	         -9.89978697	         14.95334120	         30.97832301	
          1.06000000	        -17.31065129	          2.23301504	         -3.53505836	          0.52200563	         15.67157815	          2.70421013	         -9.33244826	         14.77679622	         30.71623813	
          1.07000000	        -17.25409317	          2.68143596	         -3.40327687	          0.78671867	         15.96300279	          2.56389567	         -8.80176705	         14.57672671	         30.49088482	
          1.08000000	        -17.21949328	          3.10839641	         -3.28137364	          1.02395370	         16.29262896	          2.42240474	         -8.30299291	         14.35338983	         30.30998348	
          1.09000000	        -17.20816480	          3.51588968	         -3.17221954	          1.23553059	         16.65956091	          2.27902696	         -7.83084231	         14.10765562	         30.18068995	
          1.10000000	        -17.21960236	          3.90812159	         -3.07674944	          1.42524956	         17.06210257	          2.13300112	         -7.37959643	         13.84152826	         30.10533134	
          1.11000000	        -17.25161167	          4.29103035	         -2.99421838	          1.59855969	         17.49755535	          1.98372374	         -6.94307601	         13.55864942	         30.07791526	
          1.12000000	        -17.30067545	          4.67159083	         -2.92271650	          1.76201748	         17.96214884	          1.83093560	         -6.51487397	         13.26456273	         30.08269089	
          1.13000000	        -17.36256156	          5.05702689	         -2.85988865	          1.92259041	         18.45126394	          1.67482887	         -6.08915047	         12.96650336	         30.09545585	
          1.14000000	        -17.43316518	          5.45410697	         -2.80383436	          2.08691777	         18.96004460	          1.51603234	         -5.66195008	         12.67255093	         30.08746467	
          1.15000000	        -17.50947312	          5.86869144	         -2.75406302	          2.26067648	         19.48435793	          1.35545975	         -5.23272964	         12.39015871	         30.03112197	
          1.16000000	        -17.59064305	          6.30558205	         -2.71254932	          2.44811103	         20.02203521	          1.19403914	         -4.80546541	         12.12417390	         29.90620625	
          1.17000000	        -17.67927832	          6.76852857	         -2.68507747	          2.65165341	         20.57424810	          1.03237933	         -4.38846837	         11.87466277	         29.70471300	
          1.18000000	        -17.78296457	          7.26006027	         -2.68302078	          2.87143874	         21.14678830	          0.87043363	         -3.99223023	         11.63503155	         29.43236980	
          1.19000000	        -17.91585371	          7.78074029	         -2.72522435	          3.10450946	         21.75090421	          0.70716909	         -3.62559005	         11.39102381	         29.10625859	
          1.20000000	        -18.09959685	          8.32756352	         -2.83894119	          3.34366811	         22.40312187	          0.54019917	         -3.29155107	         11.12125708	         28.74979487	
          1.21000000	        -18.36226191	          8.89157996	         -3.05801006	          3.57635311	         23.12299067	          0.36541579	         -2.98421385	         10.80025492	         28.38686602	
          1.22000000	        -18.73364348	          9.45531472	         -3.41635593	          3.78429520	         23.92760896	          0.17687946	         -2.68791662	         10.40483510	         28.03688705	
          1.23000000	        -19.23419379	          9.99182122	         -3.93379571	          3.94577897	         24.82144456	         -0.03210769	         -2.37899725	          9.92471817	         27.71160023	
          1.24000000	        -19.85570105	         10.46924637	         -4.59235657	          4.04312747	         25.78275132	         -0.26532149	         -2.02904981	          9.37493723	         27.41451702	
          1.25000000	        -20.51724263	         10.87085284	         -5.28089149	          4.08412567	         26.74431972	         -0.51391700	         -1.61146589	          8.80955544	         27.14033291	
